<?xml version="1.0" encoding="UTF-8"?><svg xmlns="http://www.w3.org/2000/svg" viewBox="0 0 977.03 977.03"><defs><style>.c{fill-rule:evenodd;stroke-width:0px;}.d{fill:none;stroke:#fff;stroke-miterlimit:10;stroke-width:25px;}</style></defs><g id="a"><path class="c" d="m256.47,18.95C319.92,4.85,396.89,0,488.52,0s168.6,4.85,232.04,18.95c64,14.22,117.19,38.5,158.11,79.42,40.92,40.92,65.2,94.11,79.42,158.11,14.1,63.44,18.94,140.41,18.94,232.04s-4.85,168.6-18.94,232.04c-14.23,64-38.5,117.19-79.42,158.11-40.92,40.92-94.11,65.2-158.11,79.42-63.44,14.1-140.41,18.94-232.04,18.94s-168.6-4.85-232.04-18.94c-64-14.23-117.19-38.5-158.11-79.42-40.92-40.92-65.2-94.11-79.42-158.11C4.85,657.11,0,580.15,0,488.52s4.85-168.6,18.95-232.04c14.22-64,38.5-117.19,79.42-158.11,40.92-40.92,94.11-65.2,158.11-79.42Z"/></g><g id="b"><rect class="d" x="342.86" y="350.65" width="170.64" height="392.48" transform="translate(-261.3 462.95) rotate(-45)"/><rect class="d" x="463.53" y="229.99" width="170.64" height="392.48" transform="translate(-140.63 512.93) rotate(-45)"/><rect class="d" x="300.63" y="660.66" width="170.64" height="170.64" transform="translate(640.53 -54.42) rotate(45)"/><rect class="d" x="505.76" y="141.81" width="170.64" height="170.64" transform="translate(333.73 -351.43) rotate(45)"/></g></svg>